HIERARCHY
ROOT Hips
{
  OFFSET -4.35178 90.3298 111.633
  CHANNELS 6 Xposition Yposition Zposition Zrotation Xrotation Yrotation
  JOINT LeftUpLeg
  {
    OFFSET 0.103456 1.85784 10.5485
    CHANNELS 6 Xposition Yposition Zposition Zrotation Xrotation Yrotation
    JOINT LeftLeg
    {
      OFFSET 43.5 -4.2e-05 0
      CHANNELS 6 Xposition Yposition Zposition Zrotation Xrotation Yrotation
      JOINT LeftFoot
      {
        OFFSET 42.3722 1.9e-05 0
        CHANNELS 6 Xposition Yposition Zposition Zrotation Xrotation Yrotation
        JOINT LeftToe
        {
          OFFSET 17.3 0 0
          CHANNELS 6 Xposition Yposition Zposition Zrotation Xrotation Yrotation
          End Site
          {
            OFFSET 0 0 0
          }
        }
      }
    }
  }
  JOINT RightUpLeg
  {
    OFFSET 0.103456 1.85782 -10.5485
    CHANNELS 6 Xposition Yposition Zposition Zrotation Xrotation Yrotation
    JOINT RightLeg
    {
      OFFSET 43.5 -2.7e-05 0
      CHANNELS 6 Xposition Yposition Zposition Zrotation Xrotation Yrotation
      JOINT RightFoot
      {
        OFFSET 42.3723 0 0
        CHANNELS 6 Xposition Yposition Zposition Zrotation Xrotation Yrotation
        JOINT RightToe
        {
          OFFSET 17.3 0 1.7e-05
          CHANNELS 6 Xposition Yposition Zposition Zrotation Xrotation Yrotation
          End Site
          {
            OFFSET 0 0 0
          }
        }
      }
    }
  }
  JOINT Spine
  {
    OFFSET 6.90197 -2.60373 0
    CHANNELS 6 Xposition Yposition Zposition Zrotation Xrotation Yrotation
    JOINT Spine1
    {
      OFFSET 12.5881 0 0
      CHANNELS 6 Xposition Yposition Zposition Zrotation Xrotation Yrotation
      JOINT Spine2
      {
        OFFSET 12.3432 -1.8e-05 0
        CHANNELS 6 Xposition Yposition Zposition Zrotation Xrotation Yrotation
        JOINT Neck
        {
          OFFSET 25.8329 2.3e-05 0
          CHANNELS 6 Xposition Yposition Zposition Zrotation Xrotation Yrotation
          JOINT Head
          {
            OFFSET 11.7666 0 0
            CHANNELS 6 Xposition Yposition Zposition Zrotation Xrotation Yrotation
            End Site
            {
              OFFSET 0 0 0
            }
          }
        }
        JOINT LeftShoulder
        {
          OFFSET 19.7459 -1.48035 6.0001
          CHANNELS 6 Xposition Yposition Zposition Zrotation Xrotation Yrotation
          JOINT LeftArm
          {
            OFFSET 11.2841 1.8e-05 -2e-05
            CHANNELS 6 Xposition Yposition Zposition Zrotation Xrotation Yrotation
            JOINT LeftForeArm
            {
              OFFSET 33 -1.3e-05 1.9e-05
              CHANNELS 6 Xposition Yposition Zposition Zrotation Xrotation Yrotation
              JOINT LeftHand
              {
                OFFSET 25.2 3.2e-05 1.1e-05
                CHANNELS 6 Xposition Yposition Zposition Zrotation Xrotation Yrotation
                End Site
                {
                  OFFSET 0 0 0
                }
              }
            }
          }
        }
        JOINT RightShoulder
        {
          OFFSET 19.7461 -1.48036 -6.00008
          CHANNELS 6 Xposition Yposition Zposition Zrotation Xrotation Yrotation
          JOINT RightArm
          {
            OFFSET 11.2841 0 0
            CHANNELS 6 Xposition Yposition Zposition Zrotation Xrotation Yrotation
            JOINT RightForeArm
            {
              OFFSET 33.0001 1.6e-05 0
              CHANNELS 6 Xposition Yposition Zposition Zrotation Xrotation Yrotation
              JOINT RightHand
              {
                OFFSET 25.1998 0.000123 0.000432
                CHANNELS 6 Xposition Yposition Zposition Zrotation Xrotation Yrotation
                End Site
                {
                  OFFSET 0 0 0
                }
              }
            }
          }
        }
      }
    }
  }
}
MOTION
Frames:	4
Frame Time:	0.0333333
70.1649 89.5643 -168.081 77.7619 57.8682 12.852 0.103456 1.85784 10.5485 13.613 13.2907 176.667 43.5 -4.2e-05 1e-05 -6.74005 -12.2898 -3.91673 42.3722 1.9e-05 0 80.1387 -4.58728 4.35603 17.3 0 3e-06 21.4546 -1e-06 0.003093 0.103456 1.85782 -10.5485 -0.503178 -6.47669 170.709 43.5 -2.7e-05 4e-06 -22.5283 9.04973 2.33388 42.3723 -2.84217e-14 1e-05 82.888 10.4643 -4.15263 17.3 -6e-06 1.7e-05 21.4546 -1.9e-05 -0.003116 6.90197 -2.60373 -3e-06 7.10535 -0.540059 0.104539 12.5881 1e-05 8e-06 4.2096 -1.00689 0.322833 12.3432 -1.8e-05 -5e-06 3.90526 -0.923901 0.394654 25.8329 2.3e-05 7e-06 7.1293 -10.2033 -2.9467 11.7666 -8e-06 -6e-06 -17.1061 -13.5701 4.38377 19.7459 -1.48035 6.0001 -174.344 5.1291 -74.3061 11.2841 1.8e-05 -2e-05 -9.98582 -5.02734 61.2316 33 -1.3e-05 1.9e-05 -36.4782 3.53918 -9.24005 25.2 3.2e-05 1.1e-05 -3.7278 34.6794 -4.43268 19.7461 -1.48036 -6.00008 -175.938 -2.47589 72.8515 11.2841 -2.84217e-14 -1e-06 -35.8359 -16.5326 -47.8718 33.0001 1.6e-05 -1e-06 -33.5946 2.16973 8.59186 25.1998 0.000123 0.000432 -4.33372 -13.0224 5.66462 
70.278 89.5641 -168.074 77.7067 58.0634 12.9228 0.103456 1.85784 10.5485 13.538 13.0795 176.567 43.5 -4.2e-05 1e-05 -6.77296 -12.2452 -3.86435 42.3722 1.9e-05 0 80.154 -4.55157 4.38985 17.3 7.10543e-15 3e-06 21.4546 -1e-06 0.003093 0.103456 1.85782 -10.5485 -0.549709 -6.45965 170.619 43.5 -2.7e-05 4e-06 -22.6017 9.1035 2.34882 42.3723 0 1e-05 82.9083 10.5399 -4.27508 17.3 -6e-06 1.7e-05 21.4546 -1.9e-05 -0.003116 6.90197 -2.60373 -3e-06 7.10913 -0.519886 0.104539 12.5881 1e-05 8e-06 4.21645 -0.967338 0.309722 12.3432 -1.8e-05 -5e-06 3.91155 -0.885114 0.379115 25.8329 2.3e-05 7e-06 7.10173 -10.1167 -3.03156 11.7666 -8e-06 -6e-06 -16.8198 -13.4271 4.36859 19.7459 -1.48035 6.0001 -174.332 5.21957 -74.3756 11.2841 1.8e-05 -2e-05 -10.1079 -4.9865 61.28 33 -1.3e-05 1.9e-05 -36.4092 3.53786 -9.21713 25.2 3.2e-05 1.1e-05 -3.74277 34.7284 -4.47 19.7461 -1.48036 -6.00008 -175.946 -2.48965 72.8857 11.2841 0 -1e-06 -35.7863 -16.4931 -47.8256 33.0001 1.6e-05 -1e-06 -33.646 2.20811 8.58391 25.1998 0.000123 0.000432 -4.37099 -12.9315 5.58745 
70.4068 89.5666 -168.078 77.6868 58.3086 12.9673 0.103456 1.85784 10.5485 13.5034 13.1534 176.523 43.5 -4.2e-05 1e-05 -6.69611 -12.2153 -3.86841 42.3722 1.9e-05 0 80.1556 -4.40946 4.20004 17.3 -7.10543e-15 3e-06 21.4546 -1e-06 0.003093 0.103456 1.85782 -10.5485 -0.617589 -6.52064 170.551 43.5 -2.7e-05 4e-06 -22.651 9.15193 2.35376 42.3723 -2.84217e-14 1e-05 82.8935 10.5653 -4.38206 17.3 -6e-06 1.7e-05 21.4546 -1.9e-05 -0.003116 6.90197 -2.60373 -3e-06 7.11938 -0.503636 0.104539 12.5881 1e-05 8e-06 4.23647 -0.935028 0.301318 12.3432 -1.8e-05 -5e-06 3.9311 -0.853081 0.368754 25.8329 2.3e-05 7e-06 7.08881 -10.0601 -3.08531 11.7666 -8e-06 -6e-06 -16.5986 -13.3407 4.3476 19.7459 -1.48035 6.0001 -174.331 5.31902 -74.4427 11.2841 1.8e-05 -2e-05 -10.0966 -5.05354 61.3622 33 -1.3e-05 1.9e-05 -36.4501 3.57954 -9.22324 25.2 3.2e-05 1.1e-05 -3.69957 34.7776 -4.51159 19.7461 -1.48036 -6.00008 -175.963 -2.49368 72.9591 11.2841 0 -1e-06 -35.7802 -16.4372 -47.8278 33.0001 1.6e-05 -1e-06 -33.717 2.205 8.57542 25.1998 0.000123 0.000432 -4.37423 -12.9689 5.62007 
70.5519 89.5687 -168.078 77.6703 58.4576 12.9989 0.103456 1.85784 10.5485 13.4781 13.1546 176.44 43.5 -4.2e-05 1e-05 -6.64338 -12.191 -3.85887 42.3722 1.9e-05 1.42109e-14 80.1417 -4.33564 4.10407 17.3 0 3e-06 21.4546 -1e-06 0.003093 0.103456 1.85782 -10.5485 -0.712022 -6.54441 170.447 43.5 -2.7e-05 4e-06 -22.7386 9.18505 2.37025 42.3723 0 1e-05 82.8848 10.5674 -4.46908 17.3 -6e-06 1.7e-05 21.4546 -1.9e-05 -0.003116 6.90197 -2.60373 -3e-06 7.14155 -0.490417 0.0998728 12.5881 1e-05 8e-06 4.28044 -0.908808 0.290465 12.3432 -1.8e-05 -5e-06 3.97468 -0.826929 0.356363 25.8329 2.3e-05 7e-06 7.05963 -10.1204 -3.09516 11.7666 -8e-06 -6e-06 -16.4813 -13.3654 4.22939 19.7459 -1.48035 6.0001 -174.328 5.37863 -74.4993 11.2841 1.8e-05 -2e-05 -10.0401 -5.12136 61.4578 33 -1.3e-05 1.9e-05 -36.5261 3.4696 -9.16496 25.2 3.2e-05 1.1e-05 -3.73035 34.7407 -4.49454 19.7461 -1.48036 -6.00008 -175.996 -2.53077 73.0698 11.2841 -2.84217e-14 -1e-06 -35.7707 -16.3497 -47.7968 33.0001 1.6e-05 -1e-06 -33.8062 2.18639 8.55548 25.1998 0.000123 0.000432 -4.34499 -12.9945 5.62245 
